<?xml version="1.0" encoding="utf-8"?>
<!-- Generator: Adobe Illustrator 15.0.1, SVG Export Plug-In . SVG Version: 6.00 Build 0)  -->
<!DOCTYPE svg PUBLIC "-//W3C//DTD SVG 1.1//EN" "http://www.w3.org/Graphics/SVG/1.1/DTD/svg11.dtd">
<svg version="1.1" id="Layer_1" xmlns="http://www.w3.org/2000/svg" xmlns:xlink="http://www.w3.org/1999/xlink" x="0px" y="0px"
	 width="143px" height="142.5px" viewBox="0 0 143 142.5" enable-background="new 0 0 143 142.5" xml:space="preserve">
<g>
	<path d="M120.104,2.987H22.897c-10.443,0-18.909,8.467-18.909,18.909v97.208c0,10.443,8.466,18.909,18.909,18.909h97.206
		c10.442,0,18.909-8.466,18.909-18.909V21.896C139.013,11.454,130.546,2.987,120.104,2.987z M93.631,44.518
		c-1.036-2.589-6.849-8.594-10.154-0.263c-4.771,12.028,3.326,26.264,15.059,26.09c1.54-0.023,9.629-0.177,9.629-0.177l0.034,10.645
		c0,0-3.8,1.351-9.314,0.825c-2.935,6.733-13.304,21.274-23.319,29.909c-2.497,2.154-6.215,2.244-9.495,0.345
		C42.068,97.215,33.78,41.444,33.78,41.444l15.195,0.173c0,0,4.662,38.332,21.928,56.116c0.771,0.795,14.677-17.268,13.641-18.476
		C72.803,72.352,70.903,59.92,70.212,54.049c-0.69-5.87-0.862-17.612,7.944-23.138s20.838-3.062,25.631,1.788
		c7.266,7.354,6.041,21.536,3.238,29.415c-2.275,3.589-12.256,1.313-14.094-2.978C94.439,54.047,94.667,47.107,93.631,44.518z"/>
</g>
</svg>
